<svg width="145" height="39" viewBox="0 0 145 39" fill="none" xmlns="http://www.w3.org/2000/svg">
<path d="M7.17488 3.72C5.89488 3.72 4.92155 3.93333 4.25488 4.36C3.61488 4.76 3.14822 5.32 2.85488 6.04C2.58822 6.76 2.36155 7.61333 2.17488 8.6C1.88155 8.6 1.54822 8.57333 1.17488 8.52C0.80155 8.46667 0.494883 8.37333 0.254883 8.24C0.468216 7.12 0.628216 6 0.734883 4.88C0.84155 3.76 0.894883 2.74667 0.894883 1.84C1.64155 1.86667 2.54822 1.89333 3.61488 1.92C4.70822 1.94666 5.88155 1.96 7.13488 1.96C8.41488 1.96 9.73488 1.96 11.0949 1.96C12.4549 1.96 13.7749 1.96 15.0549 1.96C16.3616 1.96 17.5616 1.94666 18.6549 1.92C19.7482 1.89333 20.6549 1.86667 21.3749 1.84C21.3482 2.8 21.3482 3.78667 21.3749 4.8C21.4282 5.81333 21.5082 6.96 21.6149 8.24C21.3482 8.37333 21.0416 8.48 20.6949 8.56C20.3749 8.61333 20.0149 8.62667 19.6149 8.6C19.5882 7.02667 19.2149 5.82667 18.4949 5C17.8016 4.14667 16.6682 3.72 15.0949 3.72H7.17488ZM9.21488 3.04H12.9749V23.92C12.9749 24.8 13.0549 25.4933 13.2149 26C13.3749 26.48 13.6816 26.8267 14.1349 27.04C14.5882 27.2267 15.2416 27.3467 16.0949 27.4C16.1749 27.6133 16.2282 27.8667 16.2549 28.16C16.2816 28.4267 16.2949 28.7467 16.2949 29.12C15.4416 29.0667 14.5616 29.0267 13.6549 29C12.7749 29 11.9082 29 11.0549 29C10.4949 29 9.89488 29 9.25488 29C8.64155 29.0267 8.04155 29.04 7.45488 29.04C6.86822 29.0667 6.32155 29.0933 5.81488 29.12C5.81488 28.7467 5.82822 28.4267 5.85488 28.16C5.88155 27.8667 5.93488 27.6133 6.01488 27.4C6.86822 27.3467 7.52155 27.2267 7.97488 27.04C8.45488 26.8267 8.77488 26.48 8.93488 26C9.12155 25.4933 9.21488 24.8 9.21488 23.92V3.04ZM25.7333 0.439998C26.24 0.519999 26.52 0.839999 26.5733 1.4C26.5733 1.45333 26.5733 1.52 26.5733 1.6C26.5733 1.65333 26.5733 1.70667 26.5733 1.76C26.4133 2.90667 26.28 4.12 26.1733 5.4C26.0933 6.68 25.9867 8.18666 25.8533 9.92C25.5867 9.92 25.28 9.89333 24.9333 9.84C24.6133 9.76 24.3867 9.65333 24.2533 9.52C24.2 8.10667 24.1067 6.70667 23.9733 5.32C23.84 3.93333 23.6667 2.58666 23.4533 1.28C23.8267 1.22667 24.2267 1.12 24.6533 0.959999C25.1067 0.799999 25.4667 0.626666 25.7333 0.439998ZM28.4724 29.12C28.4724 28.7467 28.4857 28.4267 28.5124 28.16C28.539 27.8667 28.5924 27.6133 28.6724 27.4C29.739 27.3467 30.459 27.0933 30.8324 26.64C31.2324 26.16 31.4324 25.2533 31.4324 23.92V16C31.4324 15.36 31.3657 14.84 31.2324 14.44C31.099 14.04 30.819 13.7333 30.3924 13.52C29.9657 13.3067 29.3124 13.1867 28.4324 13.16C28.4324 12.8667 28.459 12.6 28.5124 12.36C28.5657 12.12 28.659 11.8933 28.7924 11.68C29.2457 11.6533 29.8057 11.5733 30.4724 11.44C31.1657 11.28 31.8324 11.1067 32.4724 10.92C33.1124 10.7067 33.6057 10.5067 33.9524 10.32C34.1924 10.4 34.3924 10.56 34.5524 10.8C34.739 11.04 34.8324 11.4133 34.8324 11.92C34.8324 12.3467 34.8057 12.84 34.7524 13.4C34.7257 13.96 34.6457 14.7867 34.5124 15.88L34.1124 15.92C34.4857 14.9067 34.7524 14.2267 34.9124 13.88C35.099 13.5333 35.2324 13.3067 35.3124 13.2C35.739 12.5867 36.4457 11.96 37.4324 11.32C38.4457 10.6533 39.6457 10.32 41.0324 10.32C42.1524 10.32 43.179 10.5733 44.1124 11.08C45.0457 11.5867 45.7257 12.4533 46.1524 13.68C46.259 14 46.3124 14.44 46.3124 15H46.1924C46.4324 14.3333 46.699 13.8 46.9924 13.4C47.4457 12.7867 48.1657 12.16 49.1524 11.52C50.139 10.8533 51.3257 10.52 52.7124 10.52C53.7257 10.52 54.6591 10.7333 55.5124 11.16C56.3657 11.56 57.0457 12.24 57.5524 13.2C58.0857 14.1333 58.3524 15.4133 58.3524 17.04V23.92C58.3524 24.8267 58.4324 25.5333 58.5924 26.04C58.7791 26.52 59.0457 26.8533 59.3924 27.04C59.7657 27.2267 60.2191 27.3467 60.7524 27.4C60.8324 27.64 60.8857 27.8933 60.9124 28.16C60.9391 28.4267 60.9524 28.7467 60.9524 29.12C60.3657 29.0667 59.6857 29.0267 58.9124 29C58.1657 29 57.3924 29 56.5924 29C56.059 29 55.5124 29 54.9524 29C54.3924 29.0267 53.8457 29.04 53.3124 29.04C52.779 29.0667 52.2857 29.0933 51.8324 29.12C51.8324 28.7467 51.8457 28.4267 51.8724 28.16C51.899 27.8667 51.9524 27.6133 52.0324 27.4C52.7524 27.3467 53.3124 27.2267 53.7124 27.04C54.1124 26.8267 54.3924 26.48 54.5524 26C54.7124 25.4933 54.7924 24.8 54.7924 23.92V17.84C54.7924 15.9467 54.4457 14.6667 53.7524 14C53.0857 13.3067 52.2057 12.96 51.1124 12.96C50.4457 12.96 49.7657 13.1867 49.0724 13.64C48.379 14.0667 47.8057 14.7733 47.3524 15.76C46.899 16.72 46.6724 18.0133 46.6724 19.64V23.92C46.6724 25.3067 46.8857 26.2267 47.3124 26.68C47.7391 27.1067 48.4591 27.3467 49.4724 27.4C49.5524 27.64 49.6057 27.8933 49.6324 28.16C49.6591 28.4267 49.6724 28.7467 49.6724 29.12C49.0057 29.0667 48.2324 29.0267 47.3524 29C46.499 29 45.6857 29 44.9124 29C44.139 29 43.3257 29 42.4724 29C41.6457 29.0267 40.8724 29.0667 40.1524 29.12C40.1524 28.7467 40.1657 28.4267 40.1924 28.16C40.219 27.8667 40.2724 27.6133 40.3524 27.4C41.0724 27.3467 41.6324 27.2267 42.0324 27.04C42.4324 26.8267 42.7124 26.48 42.8724 26C43.0324 25.4933 43.1124 24.8 43.1124 23.92V17.64C43.1124 15.7467 42.7657 14.4667 42.0724 13.8C41.4057 13.1067 40.5257 12.76 39.4324 12.76C38.7657 12.76 38.0857 12.9867 37.3924 13.44C36.699 13.8667 36.1257 14.5733 35.6724 15.56C35.219 16.52 34.9924 17.8133 34.9924 19.44V23.92C34.9924 25.2533 35.1924 26.16 35.5924 26.64C35.9924 27.0933 36.7257 27.3467 37.7924 27.4C37.8724 27.64 37.9257 27.8933 37.9524 28.16C37.979 28.4267 37.9924 28.7467 37.9924 29.12C37.539 29.0933 37.0324 29.0667 36.4724 29.04C35.9124 29.04 35.3524 29.0267 34.7924 29C34.2324 29 33.7124 29 33.2324 29C32.779 29 32.259 29 31.6724 29C31.0857 29.0267 30.5124 29.04 29.9524 29.04C29.3924 29.0667 28.899 29.0933 28.4724 29.12ZM70.863 29.36C68.9697 29.36 67.3963 28.9333 66.143 28.08C64.8897 27.2267 63.943 26.08 63.303 24.64C62.6897 23.1733 62.383 21.5733 62.383 19.84C62.383 18.1333 62.7163 16.56 63.383 15.12C64.0497 13.68 64.9963 12.52 66.223 11.64C67.4763 10.76 68.9563 10.32 70.663 10.32C72.3963 10.32 73.783 10.6933 74.823 11.44C75.8897 12.1867 76.6763 13.1867 77.183 14.44C77.7163 15.6933 78.0363 17.08 78.143 18.6C78.0363 19.1333 77.8363 19.5867 77.543 19.96C77.0897 19.96 76.4097 19.96 75.503 19.96C74.5963 19.96 73.5697 19.9733 72.423 20C71.2763 20 70.103 20.0267 68.903 20.08C67.703 20.1067 66.5697 20.1467 65.503 20.2V18.16H73.983C73.983 16.4 73.663 14.9733 73.023 13.88C72.383 12.7867 71.4763 12.24 70.303 12.24C69.663 12.24 69.0363 12.44 68.423 12.84C67.8097 13.2133 67.303 13.8933 66.903 14.88C66.503 15.84 66.303 17.2133 66.303 19C66.303 20.3067 66.463 21.5867 66.783 22.84C67.1297 24.0667 67.7163 25.0933 68.543 25.92C69.3963 26.72 70.5963 27.12 72.143 27.12C73.023 27.12 73.8897 26.92 74.743 26.52C75.5963 26.12 76.3563 25.5467 77.023 24.8C77.2363 24.9067 77.4363 25.0933 77.623 25.36C77.8363 25.6 77.9563 25.8267 77.983 26.04C77.0763 27.24 76.023 28.0933 74.823 28.6C73.6497 29.1067 72.3297 29.36 70.863 29.36ZM86.7283 38.96C85.1017 38.96 83.7683 38.7467 82.7283 38.32C81.715 37.92 80.9683 37.32 80.4883 36.52C80.0083 35.72 79.7683 34.7333 79.7683 33.56C79.7683 32.5467 80.035 31.6667 80.5683 30.92C81.1283 30.1733 81.9017 29.5867 82.8883 29.16L84.8883 29.32C84.2483 29.8 83.8083 30.3067 83.5683 30.84C83.3283 31.3733 83.2083 32 83.2083 32.72C83.2083 34.08 83.5417 35.1067 84.2083 35.8C84.9017 36.4933 86.0617 36.84 87.6883 36.84C89.4483 36.84 90.8217 36.4 91.8083 35.52C92.8217 34.64 93.3283 33.6267 93.3283 32.48C93.3283 31.7867 93.155 31.24 92.8083 30.84C92.4883 30.44 91.8483 30.1467 90.8883 29.96C89.955 29.7733 88.5683 29.68 86.7283 29.68C85.5283 29.68 84.5417 29.6133 83.7683 29.48C83.0217 29.3733 82.4217 29.1867 81.9683 28.92C81.5417 28.6267 81.235 28.2667 81.0483 27.84C80.8883 27.4133 80.8083 26.8933 80.8083 26.28C80.8083 25.4 81.0617 24.5467 81.5683 23.72C82.1017 22.8667 82.7817 22.1067 83.6083 21.44L85.0883 22.48C84.555 22.9333 84.1683 23.36 83.9283 23.76C83.715 24.16 83.6083 24.5067 83.6083 24.8C83.6083 25.28 83.7283 25.64 83.9683 25.88C84.235 26.12 84.7817 26.28 85.6083 26.36C86.435 26.44 87.7017 26.48 89.4083 26.48C91.195 26.48 92.6083 26.6267 93.6483 26.92C94.715 27.2133 95.475 27.68 95.9283 28.32C96.4083 28.96 96.6483 29.8267 96.6483 30.92C96.6483 31.8267 96.395 32.7467 95.8883 33.68C95.4083 34.64 94.7283 35.5067 93.8483 36.28C92.9683 37.08 91.915 37.72 90.6883 38.2C89.4883 38.7067 88.1683 38.96 86.7283 38.96ZM87.6883 23.44C86.435 23.44 85.2483 23.2 84.1283 22.72C83.0083 22.24 82.1017 21.52 81.4083 20.56C80.7417 19.6 80.4083 18.4 80.4083 16.96C80.4083 15.7333 80.675 14.6267 81.2083 13.64C81.7417 12.6267 82.5417 11.8267 83.6083 11.24C84.7017 10.6267 86.035 10.32 87.6083 10.32C88.9417 10.32 90.0617 10.5467 90.9683 11C91.9017 11.4267 92.6617 11.9867 93.2483 12.68C93.835 13.3467 94.2617 14.0533 94.5283 14.8C94.795 15.52 94.9283 16.16 94.9283 16.72C94.9283 17.9467 94.6483 19.08 94.0883 20.12C93.555 21.1333 92.7417 21.9467 91.6483 22.56C90.5817 23.1467 89.2617 23.44 87.6883 23.44ZM88.1683 21.6C89.0483 21.6 89.7683 21.24 90.3283 20.52C90.8883 19.7733 91.1683 18.7067 91.1683 17.32C91.1683 15.9067 90.8217 14.6933 90.1283 13.68C89.435 12.64 88.4617 12.12 87.2083 12.12C86.1417 12.12 85.355 12.5733 84.8483 13.48C84.3417 14.36 84.0883 15.3467 84.0883 16.44C84.0883 18.0933 84.4483 19.3733 85.1683 20.28C85.8883 21.16 86.8883 21.6 88.1683 21.6ZM96.9683 13.16C96.5417 13.0533 96.0217 12.9467 95.4083 12.84C94.8217 12.7333 94.235 12.64 93.6483 12.56C93.0883 12.48 92.6083 12.4267 92.2083 12.4L89.4083 10.68H96.6883C96.795 11.0267 96.8617 11.4267 96.8883 11.88C96.9417 12.3067 96.9683 12.7333 96.9683 13.16ZM116.798 23.92C116.798 25.3067 116.985 26.24 117.358 26.72C117.758 27.1733 118.358 27.4 119.158 27.4C119.238 27.64 119.291 27.8933 119.318 28.16C119.345 28.4267 119.358 28.7467 119.358 29.12C118.771 29.0667 118.105 29.0267 117.358 29C116.611 29 115.825 29 114.998 29C114.465 29 113.905 29 113.318 29C112.731 29.0267 112.171 29.04 111.638 29.04C111.131 29.0667 110.665 29.0933 110.238 29.12C110.238 28.7467 110.251 28.4267 110.278 28.16C110.305 27.8667 110.358 27.6133 110.438 27.4C111.398 27.4 112.091 27.16 112.518 26.68C112.971 26.1733 113.198 25.2533 113.198 23.92V17.84C113.198 15.9467 112.851 14.6667 112.158 14C111.465 13.3067 110.571 12.96 109.478 12.96C108.785 12.96 108.091 13.1867 107.398 13.64C106.705 14.0667 106.118 14.7733 105.638 15.76C105.185 16.72 104.958 18.0133 104.958 19.64V23.92C104.958 25.2533 105.158 26.1733 105.558 26.68C105.958 27.16 106.678 27.4 107.718 27.4C107.798 27.64 107.851 27.8933 107.878 28.16C107.905 28.4267 107.918 28.7467 107.918 29.12C107.545 29.0933 107.091 29.0667 106.558 29.04C106.025 29.04 105.465 29.0267 104.878 29C104.291 29 103.718 29 103.158 29C102.625 29 102.065 29 101.478 29C100.891 29.0267 100.331 29.04 99.798 29.04C99.2647 29.0667 98.798 29.0933 98.398 29.12C98.398 28.7467 98.4113 28.4267 98.438 28.16C98.4647 27.8667 98.518 27.6133 98.598 27.4C99.638 27.4 100.358 27.16 100.758 26.68C101.158 26.1733 101.358 25.2533 101.358 23.92V16L104.958 12.08C104.958 12.4 104.945 12.76 104.918 13.16C104.891 13.56 104.811 13.9867 104.678 14.44C104.758 14.3067 104.838 14.16 104.918 14C104.998 13.8133 105.118 13.6133 105.278 13.4C105.731 12.7867 106.451 12.16 107.438 11.52C108.451 10.8533 109.665 10.52 111.078 10.52C112.091 10.52 113.025 10.7333 113.878 11.16C114.758 11.56 115.465 12.24 115.998 13.2C116.531 14.1333 116.798 15.4133 116.798 17.04V23.92ZM101.358 6C101.358 5.36 101.291 4.84 101.158 4.44C101.051 4.01333 100.785 3.69333 100.358 3.48C99.9313 3.26667 99.2647 3.16 98.358 3.16C98.358 2.86667 98.3847 2.6 98.438 2.36C98.4913 2.12 98.5847 1.89333 98.718 1.68C99.118 1.68 99.678 1.61333 100.398 1.48C101.145 1.34667 101.865 1.17333 102.558 0.959999C103.251 0.746665 103.758 0.533332 104.078 0.32C104.318 0.399999 104.518 0.559998 104.678 0.799998C104.865 1.04 104.958 1.41333 104.958 1.92V7.48H101.358V6ZM101.358 6H104.958V12.08L101.358 16.6V6ZM132.906 29.36C132.613 29.2267 132.373 28.9867 132.186 28.64C132.026 28.2933 131.946 27.7467 131.946 27C131.946 26.76 131.959 26.48 131.986 26.16C132.013 25.8133 132.066 25.5067 132.146 25.24H132.226C132.146 25.6667 131.959 26.1333 131.666 26.64C131.399 27.12 131.039 27.5467 130.586 27.92C130.133 28.32 129.559 28.6533 128.866 28.92C128.173 29.16 127.333 29.28 126.346 29.28C124.666 29.28 123.386 28.9067 122.506 28.16C121.626 27.3867 121.186 26.3467 121.186 25.04C121.186 24 121.426 23.12 121.906 22.4C122.413 21.6533 123.053 21.04 123.826 20.56C124.626 20.0533 125.479 19.6533 126.386 19.36C127.319 19.0667 128.226 18.84 129.106 18.68C129.986 18.52 130.759 18.3867 131.426 18.28C131.426 17.1867 131.399 16.3333 131.346 15.72C131.319 15.1067 131.239 14.6267 131.106 14.28C130.999 13.9067 130.826 13.5867 130.586 13.32C130.266 12.92 129.893 12.6267 129.466 12.44C129.066 12.2267 128.613 12.12 128.106 12.12C127.226 12.12 126.533 12.4 126.026 12.96C125.519 13.4933 125.159 14.12 124.946 14.84C124.733 15.56 124.613 16.2 124.586 16.76C124.293 16.76 123.919 16.7467 123.466 16.72C123.039 16.6667 122.719 16.5867 122.506 16.48C122.559 15.8133 122.573 15.0667 122.546 14.24C122.519 13.4133 122.439 12.7067 122.306 12.12C123.399 11.56 124.546 11.12 125.746 10.8C126.973 10.48 128.093 10.32 129.106 10.32C130.093 10.32 130.933 10.4667 131.626 10.76C132.346 11.0267 132.919 11.3867 133.346 11.84C134.039 12.5067 134.493 13.3867 134.706 14.48C134.919 15.5467 135.026 16.9733 135.026 18.76V23.16C135.026 23.9067 135.079 24.5067 135.186 24.96C135.319 25.3867 135.559 25.7067 135.906 25.92C136.253 26.1067 136.786 26.2267 137.506 26.28C137.506 26.5467 137.493 26.8533 137.466 27.2C137.439 27.52 137.373 27.8267 137.266 28.12C136.599 28.1467 135.853 28.28 135.026 28.52C134.226 28.7333 133.519 29.0133 132.906 29.36ZM127.466 27.08C128.053 27.08 128.653 26.8933 129.266 26.52C129.879 26.12 130.386 25.5067 130.786 24.68C131.213 23.8533 131.426 22.7733 131.426 21.44V19.92C130.759 20 130.053 20.12 129.306 20.28C128.559 20.4133 127.866 20.6267 127.226 20.92C126.586 21.2133 126.066 21.6267 125.666 22.16C125.266 22.6667 125.066 23.36 125.066 24.24C125.066 25.2267 125.306 25.9467 125.786 26.4C126.266 26.8533 126.826 27.08 127.466 27.08Z" fill="#161313"/>
<path d="M142.148 29.4C141.295 29.4 140.628 29.16 140.148 28.68C139.668 28.2 139.428 27.5867 139.428 26.84C139.428 26.0933 139.695 25.4533 140.228 24.92C140.788 24.3867 141.495 24.12 142.348 24.12C143.175 24.12 143.815 24.4 144.268 24.96C144.748 25.4933 144.988 26.04 144.988 26.6C144.988 27.56 144.695 28.2667 144.108 28.72C143.548 29.1733 142.895 29.4 142.148 29.4Z" fill="url(#paint0_linear_619_120)"/>
<defs>
<linearGradient id="paint0_linear_619_120" x1="-0.745117" y1="19" x2="147.255" y2="19" gradientUnits="userSpaceOnUse">
<stop stop-color="#FE8C00"/>
<stop offset="1" stop-color="#F83600"/>
</linearGradient>
</defs>
</svg>
